solid AssimpScene
 facet normal 0.965926 0.258819 0
  outer loop
  vertex 0.259808 0.15 -0.025
  vertex 0.3 0 0.025
  vertex 0.3 0 -0.025
  endloop
 endfacet

 facet normal 0.965926 0.258819 0
  outer loop
  vertex 0.3 0 0.025
  vertex 0.259808 0.15 -0.025
  vertex 0.259808 0.15 0.025
  endloop
 endfacet

 facet normal 0.707107 0.707107 0
  outer loop
  vertex 0.15 0.259808 0.025
  vertex 0.259808 0.15 -0.025
  vertex 0.15 0.259808 -0.025
  endloop
 endfacet

 facet normal 0.707107 0.707107 0
  outer loop
  vertex 0.259808 0.15 -0.025
  vertex 0.15 0.259808 0.025
  vertex 0.259808 0.15 0.025
  endloop
 endfacet

 facet normal 0.258819 0.965926 0
  outer loop
  vertex 1.94289e-16 0.3 0.025
  vertex 0.15 0.259808 -0.025
  vertex 1.94289e-16 0.3 -0.025
  endloop
 endfacet

 facet normal 0.258819 0.965926 0
  outer loop
  vertex 0.15 0.259808 -0.025
  vertex 1.94289e-16 0.3 0.025
  vertex 0.15 0.259808 0.025
  endloop
 endfacet

 facet normal -0.258819 0.965926 0
  outer loop
  vertex -0.15 0.259808 0.025
  vertex 1.94289e-16 0.3 -0.025
  vertex -0.15 0.259808 -0.025
  endloop
 endfacet

 facet normal -0.258819 0.965926 0
  outer loop
  vertex 1.94289e-16 0.3 -0.025
  vertex -0.15 0.259808 0.025
  vertex 1.94289e-16 0.3 0.025
  endloop
 endfacet

 facet normal -0.707107 0.707107 0
  outer loop
  vertex -0.259808 0.15 0.025
  vertex -0.15 0.259808 -0.025
  vertex -0.259808 0.15 -0.025
  endloop
 endfacet

 facet normal -0.707107 0.707107 0
  outer loop
  vertex -0.15 0.259808 -0.025
  vertex -0.259808 0.15 0.025
  vertex -0.15 0.259808 0.025
  endloop
 endfacet

 facet normal -0.965926 0.258819 0
  outer loop
  vertex -0.3 3.88578e-16 0.025
  vertex -0.259808 0.15 -0.025
  vertex -0.3 3.88578e-16 -0.025
  endloop
 endfacet

 facet normal -0.965926 0.258819 0
  outer loop
  vertex -0.259808 0.15 -0.025
  vertex -0.3 3.88578e-16 0.025
  vertex -0.259808 0.15 0.025
  endloop
 endfacet

 facet normal -0.965926 -0.258819 0
  outer loop
  vertex -0.259808 -0.15 0.025
  vertex -0.3 3.88578e-16 -0.025
  vertex -0.259808 -0.15 -0.025
  endloop
 endfacet

 facet normal -0.965926 -0.258819 0
  outer loop
  vertex -0.3 3.88578e-16 -0.025
  vertex -0.259808 -0.15 0.025
  vertex -0.3 3.88578e-16 0.025
  endloop
 endfacet

 facet normal -0.707107 -0.707107 0
  outer loop
  vertex -0.15 -0.259808 0.025
  vertex -0.259808 -0.15 -0.025
  vertex -0.15 -0.259808 -0.025
  endloop
 endfacet

 facet normal -0.707107 -0.707107 0
  outer loop
  vertex -0.259808 -0.15 -0.025
  vertex -0.15 -0.259808 0.025
  vertex -0.259808 -0.15 0.025
  endloop
 endfacet

 facet normal -0.258819 -0.965926 0
  outer loop
  vertex -5.27356e-16 -0.3 0.025
  vertex -0.15 -0.259808 -0.025
  vertex -5.27356e-16 -0.3 -0.025
  endloop
 endfacet

 facet normal -0.258819 -0.965926 0
  outer loop
  vertex -0.15 -0.259808 -0.025
  vertex -5.27356e-16 -0.3 0.025
  vertex -0.15 -0.259808 0.025
  endloop
 endfacet

 facet normal 0.258819 -0.965926 0
  outer loop
  vertex 0.15 -0.259808 0.025
  vertex -5.27356e-16 -0.3 -0.025
  vertex 0.15 -0.259808 -0.025
  endloop
 endfacet

 facet normal 0.258819 -0.965926 0
  outer loop
  vertex -5.27356e-16 -0.3 -0.025
  vertex 0.15 -0.259808 0.025
  vertex -5.27356e-16 -0.3 0.025
  endloop
 endfacet

 facet normal 0.707107 -0.707107 0
  outer loop
  vertex 0.259808 -0.15 0.025
  vertex 0.15 -0.259808 -0.025
  vertex 0.259808 -0.15 -0.025
  endloop
 endfacet

 facet normal 0.707107 -0.707107 0
  outer loop
  vertex 0.15 -0.259808 -0.025
  vertex 0.259808 -0.15 0.025
  vertex 0.15 -0.259808 0.025
  endloop
 endfacet

 facet normal 0 0 1
  outer loop
  vertex 0.3 0 0.025
  vertex 0.15 -0.259808 0.025
  vertex 0.259808 -0.15 0.025
  endloop
 endfacet

 facet normal 0 0 1
  outer loop
  vertex 0.3 0 0.025
  vertex -5.27356e-16 -0.3 0.025
  vertex 0.15 -0.259808 0.025
  endloop
 endfacet

 facet normal 0 0 1
  outer loop
  vertex 0.3 0 0.025
  vertex -0.15 -0.259808 0.025
  vertex -5.27356e-16 -0.3 0.025
  endloop
 endfacet

 facet normal 0 0 1
  outer loop
  vertex 0.15 0.259808 0.025
  vertex 0.3 0 0.025
  vertex 0.259808 0.15 0.025
  endloop
 endfacet

 facet normal 0 -2.63297e-17 1
  outer loop
  vertex 1.94289e-16 0.3 0.025
  vertex 0.3 0 0.025
  vertex 0.15 0.259808 0.025
  endloop
 endfacet

 facet normal 0 0 1
  outer loop
  vertex -0.259808 -0.15 0.025
  vertex -0.259808 0.15 0.025
  vertex -0.3 3.88578e-16 0.025
  endloop
 endfacet

 facet normal 0 0 1
  outer loop
  vertex -0.259808 -0.15 0.025
  vertex -0.22 0.175 0.025
  vertex -0.259808 0.15 0.025
  endloop
 endfacet

 facet normal 0 0 1
  outer loop
  vertex -0.259808 -0.15 0.025
  vertex -0.22 -0.175 0.025
  vertex -0.22 0.175 0.025
  endloop
 endfacet

 facet normal 0 0 1
  outer loop
  vertex -0.15 -0.259808 0.025
  vertex -0.22 -0.175 0.025
  vertex -0.259808 -0.15 0.025
  endloop
 endfacet

 facet normal 0 0 1
  outer loop
  vertex -0.15 -0.259808 0.025
  vertex -0.02 -0.175 0.025
  vertex -0.22 -0.175 0.025
  endloop
 endfacet

 facet normal 0 3.95294e-16 1
  outer loop
  vertex 0.3 0 0.025
  vertex -0.02 -0.175 0.025
  vertex -0.15 -0.259808 0.025
  endloop
 endfacet

 facet normal 0 0 1
  outer loop
  vertex 0.3 0 0.025
  vertex -0.02 0.175 0.025
  vertex -0.02 -0.175 0.025
  endloop
 endfacet

 facet normal 0 0 1
  outer loop
  vertex -0.22 0.175 0.025
  vertex -0.15 0.259808 0.025
  vertex -0.259808 0.15 0.025
  endloop
 endfacet

 facet normal 0 0 1
  outer loop
  vertex -0.22 0.175 0.025
  vertex 1.94289e-16 0.3 0.025
  vertex -0.15 0.259808 0.025
  endloop
 endfacet

 facet normal 0 -1.73472e-17 1
  outer loop
  vertex -0.02 0.175 0.025
  vertex 1.94289e-16 0.3 0.025
  vertex -0.22 0.175 0.025
  endloop
 endfacet

 facet normal 0 -1.99393e-17 1
  outer loop
  vertex 0.3 0 0.025
  vertex 1.94289e-16 0.3 0.025
  vertex -0.02 0.175 0.025
  endloop
 endfacet

 facet normal 0.965926 -0.258819 0
  outer loop
  vertex 0.3 0 0.025
  vertex 0.259808 -0.15 -0.025
  vertex 0.3 0 -0.025
  endloop
 endfacet

 facet normal 0.965926 -0.258819 0
  outer loop
  vertex 0.259808 -0.15 -0.025
  vertex 0.3 0 0.025
  vertex 0.259808 -0.15 0.025
  endloop
 endfacet

 facet normal 0 0 -1
  outer loop
  vertex 0.259808 -0.15 -0.025
  vertex 0.259808 0.15 -0.025
  vertex 0.3 0 -0.025
  endloop
 endfacet

 facet normal 0 0 -1
  outer loop
  vertex 0.259808 -0.15 -0.025
  vertex 0.15 0.259808 -0.025
  vertex 0.259808 0.15 -0.025
  endloop
 endfacet

 facet normal 3.0403e-17 0 -1
  outer loop
  vertex 0.259808 -0.15 -0.025
  vertex 1.94289e-16 0.3 -0.025
  vertex 0.15 0.259808 -0.025
  endloop
 endfacet

 facet normal 0 5.56413e-18 -1
  outer loop
  vertex 0.15 -0.259808 -0.025
  vertex 1.94289e-16 0.3 -0.025
  vertex 0.259808 -0.15 -0.025
  endloop
 endfacet

 facet normal 0 -2.89121e-18 -1
  outer loop
  vertex -5.27356e-16 -0.3 -0.025
  vertex 1.94289e-16 0.3 -0.025
  vertex 0.15 -0.259808 -0.025
  endloop
 endfacet

 facet normal 0 0 -1
  outer loop
  vertex -0.15 0.259808 -0.025
  vertex -0.22 0.175 -0.025
  vertex -0.259808 0.15 -0.025
  endloop
 endfacet

 facet normal 0 0 -1
  outer loop
  vertex -0.15 0.259808 -0.025
  vertex -0.02 0.175 -0.025
  vertex -0.22 0.175 -0.025
  endloop
 endfacet

 facet normal 0 0 -1
  outer loop
  vertex 1.94289e-16 0.3 -0.025
  vertex -0.02 0.175 -0.025
  vertex -0.15 0.259808 -0.025
  endloop
 endfacet

 facet normal 0 0 -1
  outer loop
  vertex 1.94289e-16 0.3 -0.025
  vertex -0.02 -0.175 -0.025
  vertex -0.02 0.175 -0.025
  endloop
 endfacet

 facet normal 0 -9.03502e-18 -1
  outer loop
  vertex -5.27356e-16 -0.3 -0.025
  vertex -0.02 -0.175 -0.025
  vertex 1.94289e-16 0.3 -0.025
  endloop
 endfacet

 facet normal 0 0 -1
  outer loop
  vertex -0.22 -0.175 -0.025
  vertex -0.259808 0.15 -0.025
  vertex -0.22 0.175 -0.025
  endloop
 endfacet

 facet normal -4.55699e-17 0 -1
  outer loop
  vertex -0.22 -0.175 -0.025
  vertex -0.3 3.88578e-16 -0.025
  vertex -0.259808 0.15 -0.025
  endloop
 endfacet

 facet normal 0 0 -1
  outer loop
  vertex -0.22 -0.175 -0.025
  vertex -0.259808 -0.15 -0.025
  vertex -0.3 3.88578e-16 -0.025
  endloop
 endfacet

 facet normal 0 0 -1
  outer loop
  vertex -0.22 -0.175 -0.025
  vertex -0.15 -0.259808 -0.025
  vertex -0.259808 -0.15 -0.025
  endloop
 endfacet

 facet normal 0 0 -1
  outer loop
  vertex -0.22 -0.175 -0.025
  vertex -5.27356e-16 -0.3 -0.025
  vertex -0.15 -0.259808 -0.025
  endloop
 endfacet

 facet normal 0 0 -1
  outer loop
  vertex -5.27356e-16 -0.3 -0.025
  vertex -0.22 -0.175 -0.025
  vertex -0.02 -0.175 -0.025
  endloop
 endfacet

 facet normal 1 0 0
  outer loop
  vertex -0.22 -0.175 0.025
  vertex -0.22 0.175 -0.025
  vertex -0.22 0.175 0.025
  endloop
 endfacet

 facet normal 1 0 0
  outer loop
  vertex -0.22 0.175 -0.025
  vertex -0.22 -0.175 0.025
  vertex -0.22 -0.175 -0.025
  endloop
 endfacet

 facet normal 0 1 0
  outer loop
  vertex -0.22 -0.175 0.025
  vertex -0.02 -0.175 -0.025
  vertex -0.22 -0.175 -0.025
  endloop
 endfacet

 facet normal 0 1 0
  outer loop
  vertex -0.02 -0.175 -0.025
  vertex -0.22 -0.175 0.025
  vertex -0.02 -0.175 0.025
  endloop
 endfacet

 facet normal -1 0 0
  outer loop
  vertex -0.02 -0.175 0.025
  vertex -0.02 0.175 -0.025
  vertex -0.02 -0.175 -0.025
  endloop
 endfacet

 facet normal -1 0 0
  outer loop
  vertex -0.02 0.175 -0.025
  vertex -0.02 -0.175 0.025
  vertex -0.02 0.175 0.025
  endloop
 endfacet

 facet normal 0 -1 0
  outer loop
  vertex -0.02 0.175 0.025
  vertex -0.22 0.175 -0.025
  vertex -0.02 0.175 -0.025
  endloop
 endfacet

 facet normal 0 -1 0
  outer loop
  vertex -0.22 0.175 -0.025
  vertex -0.02 0.175 0.025
  vertex -0.22 0.175 0.025
  endloop
 endfacet

endsolid AssimpScene
